<?xml version="1.0" encoding="utf-8"?>
<!-- Generator: Adobe Illustrator 16.0.0, SVG Export Plug-In . SVG Version: 6.00 Build 0)  -->
<!DOCTYPE svg PUBLIC "-//W3C//DTD SVG 1.1//EN" "http://www.w3.org/Graphics/SVG/1.1/DTD/svg11.dtd">
<svg version="1.1" id="Layer_1" xmlns="http://www.w3.org/2000/svg" xmlns:xlink="http://www.w3.org/1999/xlink" x="0px" y="0px"
	 width="460.8px" height="259.2px" viewBox="0 0 460.8 259.2" enable-background="new 0 0 460.8 259.2" xml:space="preserve">
<g enable-background="new    ">
	<path fill="#FFFFFF" d="M109.322,140.889c-12.547,0-21.694-8.742-21.694-22.746c0-14.085,8.985-22.746,21.694-22.746
		c12.952,0,20.884,9.228,20.884,20.479c0,1.781,0,2.914-0.162,4.452H93.375c0.486,10.361,7.69,15.785,15.947,15.785
		c7.528,0,12.628-3.967,14.247-9.875h5.99C127.536,134.577,120.412,140.889,109.322,140.889z M93.375,115.715h31.084
		c0.243-10.28-7.205-15.461-15.38-15.461C101.065,100.254,94.023,105.435,93.375,115.715z"/>
	<path fill="#FFFFFF" d="M155.785,140.889c-10.038,0-17.08-5.018-17.808-13.113h5.828c0.485,4.857,4.695,8.337,11.899,8.337
		c6.314,0,9.875-3.399,9.875-7.609c0-10.928-26.551-4.533-26.551-21.128c0-6.557,6.233-11.979,15.542-11.979
		c9.471,0,15.704,5.019,16.189,13.518h-5.667c-0.324-4.938-3.966-8.661-10.685-8.661c-5.909,0-9.633,3.157-9.633,7.043
		c0,11.979,26.146,5.585,26.389,21.208C171.166,135.627,164.933,140.889,155.785,140.889z"/>
	<path fill="#FFFFFF" d="M183.469,100.82h-6.152v-4.775h6.152v-11.09h5.748v11.09h12.142v4.775h-12.142v27.441
		c0,5.424,1.862,7.125,6.961,7.125h5.181v4.857h-6.071c-7.69,0-11.818-3.158-11.818-11.982V100.82H183.469z"/>
	<path fill="#FFFFFF" d="M230.256,140.243h-19.589V83.659h19.022c11.898,0,17.566,6.314,17.566,14.247
		c0,7.447-4.695,11.576-10.119,13.113c6.314,1.134,11.414,6.962,11.414,14.085C248.55,133.604,242.155,140.243,230.256,140.243z
		 M229.284,88.436h-12.952v20.237h13.195c7.689,0,11.98-3.886,11.98-10.2C241.507,92.402,237.46,88.436,229.284,88.436z
		 M229.608,113.367h-13.275v22.098h13.519c8.176,0,13.032-4.127,13.032-10.927C242.882,117.738,237.703,113.367,229.608,113.367z"/>
	<path fill="#FFFFFF" d="M278.337,140.889c-12.467,0-21.938-8.742-21.938-22.746c0-14.085,9.714-22.746,22.1-22.746
		c12.465,0,22.099,8.661,22.099,22.746C300.598,132.147,290.804,140.889,278.337,140.889z M278.337,135.952
		c8.338,0,16.433-5.666,16.433-17.808c0-12.143-7.933-17.809-16.353-17.809c-8.418,0-16.271,5.666-16.271,17.809
		C262.148,130.286,269.919,135.952,278.337,135.952z"/>
	<path fill="#FFFFFF" d="M329.496,95.397c8.906,0,14.977,4.775,17.486,10.361v-9.714h5.666v44.199h-5.666v-9.795
		c-2.592,5.665-8.742,10.44-17.566,10.44c-12.063,0-21.047-8.984-21.047-22.827C308.369,104.221,317.353,95.397,329.496,95.397z
		 M330.548,100.335c-9.309,0-16.432,6.476-16.432,17.728c0,11.171,7.123,17.889,16.432,17.889c9.066,0,16.434-6.799,16.434-17.808
		C346.982,107.135,339.615,100.335,330.548,100.335z"/>
	<path fill="#FFFFFF" d="M371.263,140.243h-5.666V96.045h5.666v7.852c2.43-5.424,7.527-8.661,15.139-8.661v5.909h-1.539
		c-7.365,0-13.6,3.318-13.6,14.408V140.243z"/>
	<path fill="#FFFFFF" d="M413.517,95.397c7.934,0,14.57,4.371,17.404,10.199V80.341h5.666v59.902h-5.666v-9.877
		c-2.59,5.828-8.742,10.523-17.484,10.523c-12.143,0-21.127-8.984-21.127-22.827C392.31,104.221,401.294,95.397,413.517,95.397z
		 M414.49,100.335c-9.311,0-16.434,6.476-16.434,17.728c0,11.171,7.123,17.889,16.434,17.889c9.066,0,16.434-6.799,16.434-17.808
		C430.923,107.135,423.556,100.335,414.49,100.335z"/>
</g>
<g enable-background="new    ">
	<path fill="#FFFFFF" d="M111.587,179.129c0,7.096-4.258,11.289-11.968,11.289h-6.354v-22.646h6.354
		C107.329,167.774,111.587,172.032,111.587,179.129z M99.619,189.194c6.968,0,10.484-3.84,10.484-10.064
		c0-6.258-3.516-10.129-10.484-10.129h-4.903v20.193H99.619z"/>
	<path fill="#FFFFFF" d="M123.517,172.678c3.871,0,6.451,2.16,7.419,4.805v-4.58h1.452v17.516h-1.452v-4.61
		c-0.968,2.676-3.581,4.868-7.419,4.868c-4.903,0-8.452-3.516-8.452-9.03C115.065,176.096,118.614,172.678,123.517,172.678z
		 M123.71,173.936c-4.226,0-7.161,2.871-7.161,7.709s2.936,7.742,7.161,7.742c4.097,0,7.226-3,7.226-7.742
		C130.936,176.967,127.807,173.936,123.71,173.936z"/>
	<path fill="#FFFFFF" d="M143.511,190.676c-3.838,0-6.548-1.74-6.871-4.967h1.484c0.226,2.227,2.064,3.709,5.387,3.709
		c2.742,0,4.355-1.613,4.355-3.517c0-4.838-10.742-2.03-10.742-8.678c0-2.451,2.387-4.548,5.806-4.548
		c3.645,0,6.064,1.902,6.258,5.16h-1.451c-0.129-2.192-1.742-3.936-4.839-3.936c-2.548,0-4.322,1.516-4.322,3.322
		c0,5.42,10.645,2.549,10.709,8.678C149.286,188.645,146.866,190.676,143.511,190.676z"/>
	<path fill="#FFFFFF" d="M153.701,166.549h1.452v10.063c1.032-2.711,3.548-4.063,6.483-4.063c3.871,0,7.032,2.354,7.032,7.611
		v10.258h-1.419v-10.16c0-4.258-2.354-6.451-5.871-6.451c-3.645,0-6.226,2.289-6.226,7.16v9.451H153.7L153.701,166.549
		L153.701,166.549z"/>
	<path fill="#FFFFFF" d="M182.664,172.678c4.903,0,8.452,3.418,8.452,8.967c0,5.516-3.548,9.031-8.452,9.031
		c-3.838,0-6.451-2.16-7.419-4.838v4.58h-1.452v-23.869h1.452v10.967C176.277,174.807,178.857,172.678,182.664,172.678z
		 M182.438,173.936c-4.064,0-7.193,3.031-7.193,7.709c0,4.742,3.129,7.742,7.193,7.742c4.258,0,7.193-2.904,7.193-7.742
		S186.696,173.936,182.438,173.936z"/>
	<path fill="#FFFFFF" d="M203.207,190.676c-4.903,0-8.613-3.418-8.613-9.031c0-5.58,3.774-8.967,8.677-8.967
		s8.613,3.387,8.613,8.967C211.884,187.258,208.11,190.676,203.207,190.676z M203.207,189.387c3.677,0,7.226-2.42,7.226-7.742
		c0-5.291-3.516-7.709-7.193-7.709c-3.677,0-7.161,2.418-7.161,7.709C196.078,186.967,199.529,189.387,203.207,189.387z"/>
	<path fill="#FFFFFF" d="M223.847,172.678c3.871,0,6.451,2.16,7.418,4.805v-4.58h1.451v17.516h-1.451v-4.61
		c-0.967,2.676-3.58,4.868-7.418,4.868c-4.903,0-8.452-3.516-8.452-9.03C215.395,176.096,218.943,172.678,223.847,172.678z
		 M224.04,173.936c-4.226,0-7.161,2.871-7.161,7.709s2.936,7.742,7.161,7.742c4.097,0,7.225-3,7.225-7.742
		C231.265,176.967,228.137,173.936,224.04,173.936z"/>
	<path fill="#FFFFFF" d="M239.455,190.418h-1.451v-17.517h1.451v3.613c0.871-2.55,3.031-3.968,6.483-3.968v1.517h-0.483
		c-3,0-6,1.483-6,6.259V190.418z"/>
	<path fill="#FFFFFF" d="M256.837,172.678c3.678,0,6.388,2.064,7.42,4.805v-10.934h1.451v23.869h-1.451v-4.646
		c-0.969,2.742-3.58,4.901-7.42,4.901c-4.902,0-8.451-3.516-8.451-9.03C248.386,176.096,251.935,172.678,256.837,172.678z
		 M257.033,173.936c-4.227,0-7.162,2.871-7.162,7.709s2.937,7.742,7.162,7.742c4.096,0,7.225-3,7.225-7.742
		C264.257,176.967,261.128,173.936,257.033,173.936z"/>
	<path fill="#FFFFFF" d="M280.766,174.194h-2.646v-1.291h2.646v-1.225c0-3.582,1.612-5.42,5.937-5.42v1.291
		c-3.42,0-4.484,1.289-4.484,4.129v1.225h4.549v1.291h-4.549v16.225h-1.451L280.766,174.194L280.766,174.194z"/>
	<path fill="#FFFFFF" d="M298.183,190.676c-4.902,0-8.613-3.418-8.613-9.031c0-5.58,3.773-8.967,8.678-8.967
		c4.902,0,8.613,3.387,8.613,8.967C306.861,187.258,303.085,190.676,298.183,190.676z M298.183,189.387
		c3.677,0,7.225-2.42,7.225-7.742c0-5.291-3.516-7.709-7.193-7.709c-3.676,0-7.159,2.418-7.159,7.709
		C291.054,186.967,294.505,189.387,298.183,189.387z"/>
	<path fill="#FFFFFF" d="M312.726,190.418h-1.451v-17.517h1.451v3.613c0.871-2.55,3.031-3.968,6.482-3.968v1.517h-0.482
		c-3,0-6,1.483-6,6.259V190.418z"/>
	<path fill="#FFFFFF" d="M331.656,167.774h1.453v22.645h-1.453V167.774z"/>
	<path fill="#FFFFFF" d="M346.138,190.676c-4.902,0-8.613-3.418-8.613-9.031c0-5.58,3.773-8.967,8.678-8.967
		s8.613,3.387,8.613,8.967C354.816,187.258,351.042,190.676,346.138,190.676z M346.138,189.387c3.678,0,7.227-2.42,7.227-7.742
		c0-5.291-3.518-7.709-7.193-7.709c-3.678,0-7.162,2.418-7.162,7.709C339.009,186.967,342.46,189.387,346.138,189.387z"/>
	<path fill="#FFFFFF" d="M357.39,167.774h14.355V169h-6.453v21.418h-1.451V169h-6.451V167.774L357.39,167.774z"/>
</g>
<path fill="none" stroke="#FFFFFF" stroke-width="5" stroke-miterlimit="10" d="M78.947,120.255
	c0,15.64-10.154,24.556-22.677,24.556H44.927c-12.525,0-22.677-8.919-22.677-24.556V98.578c0-15.639,10.152-24.557,22.677-24.557
	H56.27c12.522,0,22.677,8.92,22.677,24.557V120.255z"/>
<path fill="none" stroke="#FFFFFF" stroke-width="4" stroke-miterlimit="10" d="M69.569,124.722c0,7.377-5.484,11.478-12.252,11.478
	H43.293c-6.765,0-12.25-4.101-12.25-11.478l0,0c0-7.376,5.485-11.475,12.25-11.475h14.023
	C64.084,113.247,69.569,117.346,69.569,124.722L69.569,124.722z"/>
<path fill="none" stroke="#FFFFFF" stroke-width="4" stroke-miterlimit="10" d="M69.569,94.751c0,7.209-5.484,11.175-12.252,11.175
	H43.293c-6.765,0-12.25-3.966-12.25-11.175l0,0c0-7.21,5.485-11.177,12.25-11.177h14.023C64.084,83.574,69.569,87.542,69.569,94.751
	L69.569,94.751z"/>
<polyline fill="none" stroke="#FFFFFF" stroke-width="5" stroke-miterlimit="10" points="260.648,129.776 272.867,123.199 
	280.382,126.018 295.419,107.223 "/>
</svg>
